<svg width="28" height="28" viewBox="0 0 28 28" fill="none" xmlns="http://www.w3.org/2000/svg">
<path d="M23.0261 0H4.97357C3.94476 0 3.1077 0.837066 3.1077 1.86588V26.1344C3.1077 27.163 3.94476 28 4.97357 28H23.0261C24.0551 28 24.8923 27.163 24.8923 26.1344V1.86588C24.8923 0.837066 24.0551 0 23.0261 0ZM5.75056 4.46602C5.75056 3.69841 6.37277 3.07614 7.14066 3.07614H20.8593C21.6274 3.07614 22.2494 3.69841 22.2494 4.46602V6.52071C22.2494 7.28855 21.6274 7.91076 20.8593 7.91076H7.14066C6.37282 7.91076 5.75056 7.28861 5.75056 6.52071V4.46602ZM11.3549 23.6975C11.6392 23.9819 11.6392 24.4431 11.3547 24.7276C11.2126 24.8698 11.0262 24.9409 10.8398 24.9409C10.6534 24.9409 10.467 24.8698 10.3248 24.7275L9.03845 23.4411L7.75212 24.7275C7.60982 24.8698 7.42342 24.9409 7.23703 24.9409C7.05063 24.9409 6.86434 24.8698 6.72216 24.7276C6.43762 24.4431 6.43762 23.9819 6.72205 23.6975L8.00838 22.4111L6.72205 21.1246C6.43762 20.8402 6.43762 20.379 6.72216 20.0945C7.00659 19.8102 7.46769 19.8102 7.75212 20.0946L9.03845 21.381L10.3248 20.0946C10.6092 19.8102 11.0703 19.8102 11.3547 20.0945C11.6392 20.379 11.6392 20.8402 11.3549 21.1246L10.0684 22.4111L11.3549 23.6975ZM11.5858 14.8102H9.76674V16.6295C9.76674 17.0317 9.44063 17.3578 9.03839 17.3578C8.63616 17.3578 8.31005 17.0317 8.31005 16.6295V14.8102H6.49097C6.08874 14.8102 5.76263 14.4841 5.76263 14.0818C5.76263 13.6796 6.08874 13.3535 6.49097 13.3535H8.31005V11.5342C8.31005 11.132 8.63616 10.8059 9.03839 10.8059C9.44063 10.8059 9.76674 11.132 9.76674 11.5342V13.3535H11.5858C11.988 13.3535 12.3142 13.6796 12.3142 14.0818C12.3142 14.4841 11.988 14.8102 11.5858 14.8102ZM16.9981 25.1048C16.8117 25.1048 16.6253 25.0337 16.4831 24.8915C16.1986 24.6071 16.1986 24.1459 16.4831 23.8615L20.0857 20.2585C20.37 19.9741 20.8313 19.9741 21.1157 20.2584C21.4002 20.5429 21.4002 21.0041 21.1157 21.2885L17.5131 24.8914C17.3709 25.0336 17.1845 25.1048 16.9981 25.1048ZM16.135 20.6089C16.135 20.1167 16.5336 19.7173 17.0265 19.7173C17.5187 19.7173 17.918 20.1166 17.918 20.6089C17.918 21.1014 17.5187 21.5003 17.0265 21.5003C16.5336 21.5003 16.135 21.1014 16.135 20.6089ZM20.9362 25.1033C20.4439 25.1033 20.0447 24.7041 20.0447 24.2118C20.0447 23.7193 20.4439 23.3202 20.9362 23.3202C21.4291 23.3202 21.8278 23.7193 21.8278 24.2118C21.8278 24.7041 21.4291 25.1033 20.9362 25.1033ZM21.5288 14.8102H16.4341C16.0317 14.8102 15.7056 14.4841 15.7056 14.0818C15.7056 13.6796 16.0317 13.3535 16.4341 13.3535H21.5288C21.9311 13.3535 22.2572 13.6796 22.2572 14.0818C22.2572 14.4841 21.9311 14.8102 21.5288 14.8102Z" fill="white"/>
</svg>
