<svg width="26" height="26" viewBox="0 0 26 26" fill="none" xmlns="http://www.w3.org/2000/svg">
<path d="M1.66969 13.8461C0.668789 14.132 0 15.0342 0 16.0469V19.0938C0 20.1374 0.70332 21.0199 1.66105 21.2921C1.60367 20.9229 1.57422 20.5451 1.57422 20.1602C1.57422 14.5837 1.57011 14.9221 1.58438 14.6469C1.59809 14.3757 1.62703 14.1086 1.66969 13.8461Z" fill="white"/>
<path d="M24.3298 13.8461C24.3933 14.2356 24.4258 14.6317 24.4258 15.0313V20.1602C24.4258 20.5451 24.3963 20.9229 24.3389 21.2921C25.2967 21.0199 26 20.1374 26 19.0938V16.0469C26 15.0003 25.2921 14.1152 24.3298 13.8461V13.8461Z" fill="white"/>
<path d="M22.6992 13.7617H14.301L11.7366 15.0439C11.4212 15.2019 11.0678 15.2852 10.7148 15.2852C10.2903 15.2852 9.87441 15.1673 9.51336 14.9439C8.83492 14.5244 8.42969 13.7978 8.42969 13V9.21375C5.44629 9.47171 3.09766 11.9823 3.09766 15.0312V20.1602C3.09766 23.3802 5.71746 26 8.9375 26H17.0625C20.2825 26 22.9023 23.3802 22.9023 20.1602V15.0312C22.9023 14.6006 22.8551 14.1746 22.7627 13.7607C22.7414 13.7617 22.7205 13.7617 22.6992 13.7617ZM9.95312 17.5703C9.95312 17.991 9.61208 18.332 9.19141 18.332C8.77073 18.332 8.42969 17.991 8.42969 17.5703V16.0469C8.42969 15.6262 8.77073 15.2852 9.19141 15.2852C9.61208 15.2852 9.95312 15.6262 9.95312 16.0469V17.5703ZM14.5234 21.3789H11.4766C11.0559 21.3789 10.7148 21.0379 10.7148 20.6172C10.7148 20.1965 11.0559 19.8555 11.4766 19.8555H14.5234C14.9441 19.8555 15.2852 20.1965 15.2852 20.6172C15.2852 21.0379 14.9441 21.3789 14.5234 21.3789ZM17.5703 17.5703C17.5703 17.991 17.2293 18.332 16.8086 18.332C16.3879 18.332 16.0469 17.991 16.0469 17.5703V16.0469C16.0469 15.6262 16.3879 15.2852 16.8086 15.2852C17.2293 15.2852 17.5703 15.6262 17.5703 16.0469V17.5703Z" fill="white"/>
<path d="M3.09766 9.06039C3.9843 8.74605 4.62109 7.89902 4.62109 6.90625C4.62109 5.64637 3.59582 4.62109 2.33594 4.62109C1.07605 4.62109 0.0507812 5.64637 0.0507812 6.90625C0.0507812 7.89902 0.687578 8.74605 1.57422 9.06039C1.57422 10.462 1.57422 11.5075 1.57371 12.2891L2.17547 12.1169C2.41363 11.5675 2.72137 11.0409 3.09766 10.5513V9.06039Z" fill="white"/>
<path d="M22.6992 0H13.2539C11.4339 0 9.95312 1.48073 9.95312 3.30078V13C9.95312 13.264 10.0898 13.5091 10.3144 13.648C10.4367 13.7236 10.5756 13.7617 10.7149 13.7617C10.8313 13.7617 10.948 13.7351 11.0555 13.6813L13.9415 12.2383H22.6992C24.5193 12.2383 26 10.7576 26 8.9375V3.30078C26 1.48073 24.5193 0 22.6992 0ZM22.1406 8.42969H13.8125C13.3918 8.42969 13.0508 8.08864 13.0508 7.66797C13.0508 7.2473 13.3918 6.90625 13.8125 6.90625H22.1406C22.5613 6.90625 22.9023 7.2473 22.9023 7.66797C22.9023 8.08864 22.5613 8.42969 22.1406 8.42969ZM22.1406 5.38281H13.8125C13.3918 5.38281 13.0508 5.04177 13.0508 4.62109C13.0508 4.20042 13.3918 3.85938 13.8125 3.85938H22.1406C22.5613 3.85938 22.9023 4.20042 22.9023 4.62109C22.9023 5.04177 22.5613 5.38281 22.1406 5.38281Z" fill="white"/>
</svg>
